<?xml version="1.0" standalone="no"?>
<!DOCTYPE svg PUBLIC "-//W3C//DTD SVG 20010904//EN"
 "http://www.w3.org/TR/2001/REC-SVG-20010904/DTD/svg10.dtd">
<svg version="1.0" xmlns="http://www.w3.org/2000/svg"
 width="840.000000pt" height="652.000000pt" viewBox="0 0 840.000000 652.000000"
 preserveAspectRatio="xMidYMid meet">

<g transform="translate(0.000000,652.000000) scale(0.100000,-0.100000)"
fill="#000000" stroke="none">
<path d="M3745 6010 c-187 -48 -551 -143 -810 -210 -258 -67 -537 -139 -620
-161 -82 -21 -247 -64 -365 -94 -456 -119 -560 -146 -702 -182 -81 -21 -148
-41 -148 -44 0 -3 26 -10 58 -16 224 -43 533 -100 802 -148 533 -95 815 -145
1070 -190 135 -24 400 -71 590 -105 190 -33 428 -76 530 -95 157 -29 586 -105
685 -121 31 -6 23 -9 1582 728 293 139 529 255 525 259 -6 5 -2840 471 -2852
468 -3 0 -158 -40 -345 -89z"/>
<path d="M4848 4608 c-114 -176 -705 -1131 -809 -1308 -53 -90 -103 -169 -112
-174 -10 -7 -77 4 -223 37 -210 47 -431 95 -949 207 -154 33 -381 83 -505 109
-124 27 -344 75 -490 106 -146 32 -364 79 -485 105 -121 27 -221 47 -222 46
-1 -1 -3 -511 -4 -1134 -1 -1097 -1 -1134 17 -1146 21 -14 170 -61 339 -105
177 -46 362 -96 480 -129 61 -17 169 -47 240 -67 139 -38 404 -111 655 -181
85 -23 205 -56 265 -73 61 -16 171 -46 245 -67 74 -20 198 -54 275 -75 77 -20
156 -42 175 -48 19 -6 46 -13 60 -16 23 -4 69 -17 288 -80 48 -14 98 -27 112
-30 14 -3 66 -16 115 -30 50 -15 122 -34 160 -44 39 -10 126 -35 195 -55 69
-20 148 -38 176 -39 55 -1 57 0 254 128 52 34 140 91 195 126 117 76 290 190
535 351 96 63 220 143 275 178 55 34 143 91 195 125 52 34 147 96 210 136 239
153 422 280 447 310 l26 30 -6 1161 c-4 639 -8 1163 -10 1165 -4 3 -223 -97
-650 -298 l-188 -88 -192 137 c-306 219 -1056 747 -1066 750 -4 1 -15 -8 -23
-20z m13 -1105 c-1 -494 -6 -914 -11 -933 -6 -25 -8 -29 -9 -12 -1 13 -14 36
-31 50 -16 15 -30 30 -30 35 0 9 -34 54 -75 101 -11 12 -44 54 -73 94 -61 81
-105 122 -132 122 -11 0 -35 22 -59 57 -23 31 -41 52 -42 47 0 -5 -4 0 -8 11
-11 25 -5 35 20 35 11 0 22 7 25 15 4 8 14 15 24 15 11 0 22 5 25 10 3 6 1 10
-5 10 -6 0 -8 5 -5 11 4 6 13 8 20 5 7 -2 21 6 31 20 11 13 24 24 31 24 7 0
14 8 14 18 2 31 4 37 17 60 10 17 10 22 0 22 -7 0 -5 5 5 13 10 7 19 31 22 61
2 27 9 63 14 80 9 26 30 143 46 251 3 17 8 41 11 55 9 31 10 39 23 123 6 37
20 105 30 150 11 45 25 116 32 157 10 64 39 142 60 160 3 3 9 14 12 24 4 10
10 16 14 13 3 -4 5 -411 4 -904z"/>
</g>
</svg>
